<?xml version="1.0" encoding="UTF-8"?> <svg xmlns="http://www.w3.org/2000/svg" width="110" height="30" viewBox="0 0 110 30" fill="none"> <path d="M29.9022 15.2714V13.5853C29.9022 11.9244 29.2868 8.75902 24.6057 8.75902C23.5025 8.75486 22.3997 8.8071 21.3018 8.91552C21.2059 8.91552 21.1479 9.01901 21.1328 9.20075C21.1176 9.38249 20.9789 11.7603 20.9789 11.7603C20.9789 11.7603 20.9184 12.0354 21.1429 11.9799C22.1602 11.6997 23.2101 11.5555 24.2653 11.5508C26.1165 11.5508 26.4872 12.5428 26.4872 13.4843C26.4498 13.5155 26.4022 13.5317 26.3536 13.5297C25.681 13.5752 25 13.6265 24.3107 13.6837C23.3076 13.7551 22.3299 14.0317 21.4379 14.4965C19.791 15.385 19.1857 16.8995 19.4682 18.5352C19.8339 20.6555 21.8364 22.0312 24.1871 21.7106C25.0789 21.6101 25.92 21.2434 26.6007 20.658C26.6966 20.5722 26.7546 20.5647 26.7722 20.7161C26.7899 20.8676 26.8555 21.0367 26.8656 21.1982C26.8757 21.3598 26.9639 21.4128 27.1178 21.4128C27.9476 21.4128 28.7799 21.3976 29.6071 21.4128C29.8593 21.4128 29.9022 21.3295 29.9022 21.1023C29.8997 19.1612 29.9022 17.2176 29.9022 15.2714ZM26.5226 17.0207V18.0632C26.5226 18.1515 26.5478 18.2474 26.457 18.3156C25.7584 18.8204 25.0118 19.1839 24.1316 19.0729C23.8158 19.0489 23.5156 18.9264 23.273 18.7226C23.0305 18.5188 22.858 18.2441 22.7797 17.937C22.7297 17.6015 22.7848 17.2587 22.9375 16.9558C23.0901 16.6529 23.3328 16.4049 23.6322 16.2458C24.1351 15.9873 24.6889 15.8433 25.2539 15.8242C25.6045 15.7889 25.9601 15.7662 26.3107 15.7182C26.4923 15.693 26.5301 15.7611 26.5251 15.9252C26.515 16.2912 26.5226 16.6597 26.5226 17.0207Z" fill="#EAEAEA"></path> <path d="M66.6422 15.2714V13.5853C66.6422 11.9244 66.0243 8.75903 61.3457 8.75903C60.2433 8.75479 59.1414 8.80702 58.0443 8.91553C57.9459 8.91553 57.8879 9.01902 57.8728 9.20076C57.8576 9.3825 57.7164 11.7603 57.7164 11.7603C57.7164 11.7603 57.6559 12.0354 57.8803 11.9799C58.8977 11.6997 59.9476 11.5555 61.0027 11.5508C62.854 11.5508 63.2272 12.5428 63.2272 13.4843C63.1889 13.5157 63.1405 13.5318 63.091 13.5297C62.4101 13.5752 61.7299 13.6265 61.0506 13.6837C60.0502 13.7561 59.0751 14.0327 58.1855 14.4965C56.5386 15.385 55.9333 16.8995 56.2157 18.5352C56.5789 20.6555 58.5815 22.0312 60.9346 21.7106C61.8257 21.6101 62.6659 21.2433 63.3458 20.6581C63.4416 20.5722 63.5021 20.5647 63.5173 20.7161C63.5324 20.8676 63.603 21.0367 63.6106 21.1982C63.6182 21.3598 63.709 21.4128 63.8628 21.4128C64.6926 21.4128 65.5224 21.3976 66.3521 21.4128C66.6044 21.4128 66.6447 21.3295 66.6447 21.1023C66.6397 19.1612 66.6422 17.2176 66.6422 15.2714ZM63.26 17.0207V18.0632C63.26 18.1515 63.2852 18.2475 63.1944 18.3156C62.4958 18.8204 61.7493 19.1839 60.869 19.0729C60.5537 19.0484 60.254 18.9257 60.012 18.7219C59.77 18.5182 59.5978 18.2437 59.5197 17.937C59.4693 17.6014 59.5243 17.2585 59.677 16.9556C59.8297 16.6526 60.0726 16.4046 60.3722 16.2458C60.8742 15.9873 61.4272 15.8433 61.9914 15.8242C62.3445 15.7889 62.7001 15.7662 63.0507 15.7182C63.2323 15.693 63.2676 15.7611 63.2651 15.9252C63.2575 16.2912 63.26 16.6597 63.26 17.0207Z" fill="#EAEAEA"></path> <path d="M100.078 11.0311C100.212 11.1587 100.369 11.2591 100.542 11.3264C100.846 11.4318 101.172 11.4544 101.488 11.3919C101.803 11.3293 102.097 11.1839 102.338 10.9705L102.411 10.9023L101.947 10.3193L101.861 10.4026C101.77 10.4862 101.666 10.5536 101.553 10.602C101.433 10.6451 101.305 10.6673 101.177 10.6676C101.079 10.6693 100.98 10.6531 100.887 10.6196C100.802 10.5828 100.724 10.5306 100.658 10.4657C100.597 10.403 100.548 10.3294 100.514 10.2486C100.478 10.1526 100.461 10.0506 100.464 9.9482C100.464 9.84929 100.481 9.75115 100.514 9.65792C100.546 9.574 100.595 9.49755 100.658 9.43326C100.72 9.36704 100.794 9.31384 100.877 9.27676C100.977 9.24382 101.082 9.22679 101.187 9.22628C101.307 9.2236 101.426 9.24417 101.538 9.28686C101.64 9.31736 101.734 9.36994 101.813 9.44084L101.901 9.52161L102.365 8.91833L102.29 8.8527C102.148 8.7273 101.983 8.62969 101.805 8.56494C101.614 8.49733 101.413 8.46318 101.21 8.46398C100.991 8.46149 100.773 8.50179 100.57 8.58261C100.389 8.65172 100.224 8.75645 100.085 8.89056C99.9486 9.02329 99.8428 9.18442 99.7751 9.36259C99.7016 9.5437 99.6648 9.73759 99.6667 9.93305C99.6639 10.1374 99.6998 10.3404 99.7726 10.5313C99.8373 10.7194 99.9413 10.8915 100.078 11.0361V11.0311Z" fill="#EAEAEA"></path> <path d="M102.534 12.5756C102.462 12.4029 102.356 12.2466 102.222 12.1162C102.088 11.9841 101.929 11.8802 101.755 11.8108C101.563 11.7374 101.358 11.7006 101.152 11.7022C100.947 11.7 100.744 11.7395 100.554 11.8184C100.383 11.8877 100.225 11.9888 100.09 12.1162C99.9558 12.2472 99.8509 12.4056 99.7827 12.5807C99.6382 12.949 99.6382 13.3583 99.7827 13.7266C99.8509 13.9017 99.9558 14.0601 100.09 14.1911C100.226 14.3235 100.386 14.4282 100.562 14.499C100.753 14.5726 100.955 14.6095 101.16 14.6076C101.367 14.6121 101.574 14.5725 101.765 14.4915C101.94 14.4188 102.098 14.312 102.23 14.1771C102.363 14.0423 102.467 13.8822 102.537 13.7064C102.609 13.5267 102.645 13.3346 102.643 13.141C102.642 12.9458 102.606 12.7523 102.534 12.5706V12.5756ZM101.137 13.8831C101.038 13.8828 100.94 13.8657 100.847 13.8327C100.766 13.7934 100.693 13.7404 100.63 13.6762C100.571 13.6123 100.525 13.5366 100.496 13.454C100.464 13.3589 100.448 13.2591 100.449 13.1587C100.448 13.0599 100.464 12.9617 100.496 12.8684C100.524 12.7834 100.571 12.7058 100.633 12.6412C100.691 12.5753 100.762 12.522 100.842 12.4847C100.936 12.4476 101.036 12.4288 101.137 12.4292C101.238 12.4264 101.338 12.4445 101.432 12.4822C101.514 12.5164 101.587 12.5681 101.647 12.6337C101.706 12.6979 101.751 12.7746 101.778 12.8583C101.842 13.0474 101.842 13.2523 101.778 13.4414C101.747 13.524 101.703 13.6008 101.647 13.6686C101.585 13.7343 101.51 13.7866 101.427 13.8226C101.337 13.8626 101.239 13.8833 101.14 13.8831H101.137Z" fill="#EAEAEA"></path> <path d="M102.03 16.5515C102.116 16.4121 102.167 16.2543 102.18 16.0911C102.194 15.9279 102.168 15.7639 102.106 15.6125C102.048 15.4852 101.962 15.3729 101.853 15.2844C101.749 15.1953 101.628 15.1276 101.498 15.085C101.354 15.0372 101.203 15.0141 101.051 15.0168H99.7651V17.8439H100.567V17.0715H100.92L101.397 17.8439H102.373L101.695 16.8342C101.824 16.7625 101.935 16.6624 102.02 16.5414L102.03 16.5515ZM100.582 15.7614H101.044C101.134 15.7563 101.223 15.7831 101.296 15.8372C101.325 15.8629 101.347 15.8948 101.362 15.9306C101.376 15.9666 101.382 16.0054 101.379 16.0442C101.382 16.0839 101.375 16.1237 101.359 16.1603C101.344 16.197 101.32 16.2292 101.289 16.2537C101.216 16.3073 101.127 16.3341 101.036 16.3294H100.595L100.582 15.7614Z" fill="#EAEAEA"></path> <path d="M101.876 18.6305C101.769 18.5403 101.646 18.4709 101.513 18.426C101.364 18.3723 101.207 18.3458 101.049 18.3478H99.7881V21.1698H100.59V20.458H101.009C101.166 20.4609 101.323 20.437 101.473 20.3873C101.613 20.3469 101.742 20.2763 101.851 20.1803C101.959 20.0887 102.045 19.974 102.103 19.8446C102.219 19.5616 102.219 19.2442 102.103 18.9611C102.051 18.8368 101.973 18.7244 101.876 18.6305ZM100.583 19.0848H101.024C101.125 19.0768 101.225 19.1075 101.304 19.1706C101.333 19.2008 101.356 19.2369 101.369 19.2767C101.384 19.3153 101.39 19.3566 101.387 19.3978C101.389 19.4417 101.382 19.4855 101.367 19.5266C101.349 19.5668 101.324 19.6029 101.291 19.6326C101.208 19.697 101.104 19.7284 100.999 19.7209H100.583V19.0848Z" fill="#EAEAEA"></path> <path d="M55.5246 9.17032C55.5246 8.72354 55.5246 8.70587 55.0983 8.64024C54.2428 8.45581 53.3519 8.5296 52.5384 8.85227C51.8751 9.14763 51.3074 9.6223 50.899 10.2229C50.841 9.82409 50.7754 9.49342 50.7451 9.1577C50.73 8.96839 50.6594 8.93557 50.4929 8.9381C49.5295 8.9381 48.5685 8.9381 47.6051 8.9381C47.4285 8.9381 47.373 8.98353 47.373 9.16527V21.1274C47.373 21.3142 47.4311 21.3571 47.6076 21.3546C48.5963 21.3546 49.5875 21.3394 50.5761 21.3546C50.8511 21.3546 50.904 21.2814 50.9015 21.0214C50.9015 18.3483 50.9015 15.6752 50.9015 13.002C50.8914 12.9395 50.8965 12.8754 50.9166 12.8153C50.9355 12.7548 50.9694 12.7001 51.015 12.6562C51.5178 12.1866 52.134 11.856 52.8032 11.697C53.6352 11.5489 54.4901 11.5929 55.3026 11.8258C55.5019 11.8763 55.5296 11.8258 55.5296 11.6491C55.5195 10.8161 55.5246 9.99573 55.5246 9.17032Z" fill="#EAEAEA"></path> <path d="M90.1331 8.55177C88.6087 8.54947 87.1307 9.07634 85.951 10.0426C84.7713 11.0088 83.9629 12.3546 83.6636 13.8505C83.3643 15.3465 83.5927 16.9 84.3098 18.2463C85.0268 19.5927 86.1882 20.6484 87.596 21.2337C89.0038 21.819 90.5708 21.8975 92.0299 21.4559C93.4891 21.0144 94.7501 20.08 95.5979 18.8121C96.4458 17.5443 96.8281 16.0213 96.6797 14.5029C96.5313 12.9845 95.8613 11.5647 94.7839 10.4853C93.5505 9.25001 91.878 8.55467 90.1331 8.55177ZM90.1331 18.6839C89.3163 18.6844 88.5245 18.4014 87.8927 17.8832C87.2609 17.365 86.8282 16.6436 86.6682 15.8419C86.5083 15.0402 86.631 14.2078 87.0155 13.4865C87.4001 12.7652 88.0226 12.1997 88.777 11.8862C89.5314 11.5728 90.3711 11.5308 91.153 11.7674C91.9349 12.0041 92.6106 12.5048 93.065 13.1841C93.5194 13.8635 93.7245 14.6795 93.6451 15.4931C93.5658 16.3068 93.2071 17.0678 92.63 17.6464C92.3023 17.975 91.9131 18.2358 91.4847 18.4138C91.0563 18.5918 90.597 18.6836 90.1331 18.6839Z" fill="#EAEAEA"></path> <path d="M16.588 15.2231C15.902 14.6804 15.1151 14.3624 14.1567 14.0393L14.0028 13.9888C13.4659 13.8292 12.9483 13.6108 12.4593 13.3375C12.2653 13.2311 12.1073 13.0695 12.0053 12.8731C11.9015 12.6781 11.8568 12.457 11.8766 12.237C11.9094 11.7725 12.3584 11.3586 13.1831 11.3586C13.8717 11.3586 14.6686 11.7902 15.3143 12.4263L17.1908 10.6013C16.8106 10.046 16.2937 9.59826 15.6901 9.30136C14.8885 8.90813 14.0077 8.70351 13.115 8.70312C12.8096 8.70395 12.5046 8.72503 12.202 8.76623C11.2874 8.86192 10.4271 9.2465 9.74545 9.86425C8.8501 10.7023 8.49952 11.7801 8.66598 13.1608C8.70678 13.5434 8.82593 13.9134 9.016 14.2478C9.20607 14.5823 9.46297 14.8739 9.77067 15.1045C10.5108 15.6204 11.32 16.0291 12.1743 16.3186L12.4719 16.4322C13.0014 16.6165 13.5123 16.8506 13.9978 17.1314C14.1622 17.2278 14.298 17.3663 14.3912 17.5327C14.4848 17.6993 14.5343 17.8869 14.535 18.078C14.535 18.168 14.5249 18.2578 14.5047 18.3455C14.3937 18.7595 13.9297 19.1987 13.1856 19.1987C11.5488 19.1987 10.3911 17.5933 10.3911 17.5933L8.75173 19.3956L8.53735 19.6253C9.23187 20.514 10.1843 21.1656 11.2638 21.4907C11.9222 21.7037 12.6097 21.8127 13.3017 21.8138C13.8221 21.8124 14.3407 21.7523 14.8477 21.6346C15.7317 21.4669 16.5297 20.9966 17.105 20.3043C17.7204 19.5319 17.955 18.6055 17.8263 17.4419C17.7849 17.0063 17.6534 16.5842 17.4402 16.2022C17.2271 15.8202 16.9368 15.4868 16.588 15.2231Z" fill="#EAEAEA"></path> <path d="M42.2128 9.17251C42.1642 9.22086 42.1187 9.2723 42.0766 9.32649C41.9228 9.50065 41.7689 9.67987 41.7059 9.76065C41.6126 9.76065 41.5016 9.69754 41.2973 9.55619L41.2065 9.49813C39.9286 8.67771 38.3886 8.36946 36.8937 8.63486C36.1366 8.73121 35.4079 8.98432 34.7539 9.37805C34.1 9.77179 33.5351 10.2975 33.0954 10.9218C31.4762 13.1935 31.8343 16.6567 34.2808 18.4287C34.4346 18.5423 34.4472 18.6054 34.3262 18.7619C33.8217 19.4182 33.3173 20.1527 32.8129 20.809V23.5856H37.04C38.412 23.6159 39.7487 23.8078 40.3061 24.8099H43.5496C43.5496 24.8099 43.4991 23.0657 41.658 21.8313C40.8509 21.2735 39.6151 20.7964 37.7537 20.7964H35.9252C36.0866 20.5743 36.2329 20.385 36.2732 20.332C36.4271 20.1199 36.5582 19.9811 36.7625 19.6959C36.7966 19.6323 36.8507 19.5817 36.9164 19.552C36.9819 19.5219 37.0553 19.514 37.1257 19.5293C37.8832 19.6379 38.6548 19.595 39.3956 19.4031C41.2368 18.9411 42.6088 17.8885 43.3226 16.0913C43.5939 15.4325 43.7286 14.7255 43.7187 14.013C43.7087 13.3005 43.5542 12.5975 43.2646 11.9466C43.1889 11.7699 43.1939 11.6942 43.2974 11.674H45.474V8.92261H42.4474L42.2128 9.17251ZM37.8899 16.6315C36.3766 16.6037 35.2921 15.5032 35.3199 14.0341C35.3162 13.6958 35.3812 13.3603 35.511 13.0479C35.6408 12.7355 35.8325 12.4527 36.0747 12.2167C36.3169 11.9807 36.6045 11.7963 36.92 11.6749C37.2354 11.5534 37.5723 11.4972 37.9101 11.5099C38.2512 11.5004 38.5905 11.5623 38.9063 11.6917C39.2227 11.8218 39.5093 12.0151 39.7487 12.2596C39.9887 12.5069 40.1751 12.8011 40.2961 13.1238C40.4172 13.4466 40.4704 13.7908 40.4524 14.1351C40.4549 14.4704 40.3898 14.8028 40.2609 15.1124C40.132 15.4219 39.942 15.7022 39.7022 15.9365C39.4625 16.1708 39.1779 16.3542 38.8657 16.4758C38.5534 16.5974 38.2198 16.6547 37.8849 16.6441L37.8899 16.6315Z" fill="#EAEAEA"></path> <path d="M78.423 9.84404C77.1242 8.82174 75.2855 8.51884 73.7899 8.76116C72.7048 8.90099 71.6874 9.36653 70.8718 10.0965C69.7979 11.0234 69.0631 12.2819 68.7835 13.6732C68.6932 14.0541 68.6417 14.4431 68.6296 14.8344C68.6301 14.8866 68.6224 14.9385 68.6069 14.9883V15.4932C68.6347 15.6106 68.6474 15.731 68.6448 15.8516C68.6448 15.9122 68.6448 15.9753 68.6448 16.0359C68.7673 17.2548 69.218 18.4177 69.9487 19.4006C70.7574 20.503 71.9356 21.2772 73.2678 21.5815C73.5091 21.6423 73.7558 21.6795 74.0043 21.6926C74.0536 21.6872 74.1034 21.6924 74.1506 21.7077H74.7206C74.8442 21.6875 74.9728 21.6774 75.0888 21.6673C75.2048 21.6572 75.2881 21.6522 75.3839 21.6371C75.7684 21.5822 76.1451 21.4822 76.5062 21.3392L78.4382 19.547V21.3619H81.6791V5.08594H78.4382L78.423 9.84404ZM77.8581 17.197C77.4394 17.8161 76.7978 18.2493 76.0674 18.4061C75.783 18.4734 75.492 18.5081 75.1998 18.5096C74.7267 18.5094 74.2587 18.4115 73.8252 18.2218C73.4651 18.0733 73.1403 17.8505 72.8718 17.5681C72.6026 17.2866 72.3962 16.951 72.2665 16.5836C71.91 15.6757 71.9245 14.6639 72.3069 13.7666C72.486 13.3194 72.7754 12.9249 73.1481 12.6199C73.5208 12.3149 73.9646 12.1093 74.4381 12.0224C75.1852 11.8488 75.9687 11.926 76.6677 12.242C77.0271 12.4022 77.3497 12.6349 77.6152 12.9254C77.8808 13.2159 78.0837 13.5582 78.2112 13.9307C78.3636 14.3625 78.437 14.8182 78.4281 15.2761C78.4332 15.9589 78.2347 16.6277 77.8581 17.197Z" fill="#EAEAEA"></path> <path d="M29.9022 15.2714V13.5853C29.9022 11.9244 29.2868 8.75902 24.6057 8.75902C23.5025 8.75486 22.3997 8.8071 21.3018 8.91552C21.2059 8.91552 21.1479 9.01901 21.1328 9.20075C21.1176 9.38249 20.9789 11.7603 20.9789 11.7603C20.9789 11.7603 20.9184 12.0354 21.1429 11.9799C22.1602 11.6997 23.2101 11.5555 24.2653 11.5508C26.1165 11.5508 26.4872 12.5428 26.4872 13.4843C26.4498 13.5155 26.4022 13.5317 26.3536 13.5297C25.681 13.5752 25 13.6265 24.3107 13.6837C23.3076 13.7551 22.3299 14.0317 21.4379 14.4965C19.791 15.385 19.1857 16.8995 19.4682 18.5352C19.8339 20.6555 21.8364 22.0312 24.1871 21.7106C25.0789 21.6101 25.92 21.2434 26.6007 20.658C26.6966 20.5722 26.7546 20.5647 26.7722 20.7161C26.7899 20.8676 26.8555 21.0367 26.8656 21.1982C26.8757 21.3598 26.9639 21.4128 27.1178 21.4128C27.9476 21.4128 28.7799 21.3976 29.6071 21.4128C29.8593 21.4128 29.9022 21.3295 29.9022 21.1023C29.8997 19.1612 29.9022 17.2176 29.9022 15.2714ZM26.5226 17.0207V18.0632C26.5226 18.1515 26.5478 18.2474 26.457 18.3156C25.7584 18.8204 25.0118 19.1839 24.1316 19.0729C23.8158 19.0489 23.5156 18.9264 23.273 18.7226C23.0305 18.5188 22.858 18.2441 22.7797 17.937C22.7297 17.6015 22.7848 17.2587 22.9375 16.9558C23.0901 16.6529 23.3328 16.4049 23.6322 16.2458C24.1351 15.9873 24.6889 15.8433 25.2539 15.8242C25.6045 15.7889 25.9601 15.7662 26.3107 15.7182C26.4923 15.693 26.5301 15.7611 26.5251 15.9252C26.515 16.2912 26.5226 16.6597 26.5226 17.0207Z" fill="#EAEAEA"></path> <path d="M66.6422 15.2714V13.5853C66.6422 11.9244 66.0243 8.75903 61.3457 8.75903C60.2433 8.75479 59.1414 8.80702 58.0443 8.91553C57.9459 8.91553 57.8879 9.01902 57.8728 9.20076C57.8576 9.3825 57.7164 11.7603 57.7164 11.7603C57.7164 11.7603 57.6559 12.0354 57.8803 11.9799C58.8977 11.6997 59.9476 11.5555 61.0027 11.5508C62.854 11.5508 63.2272 12.5428 63.2272 13.4843C63.1889 13.5157 63.1405 13.5318 63.091 13.5297C62.4101 13.5752 61.7299 13.6265 61.0506 13.6837C60.0502 13.7561 59.0751 14.0327 58.1855 14.4965C56.5386 15.385 55.9333 16.8995 56.2157 18.5352C56.5789 20.6555 58.5815 22.0312 60.9346 21.7106C61.8257 21.6101 62.6659 21.2433 63.3458 20.6581C63.4416 20.5722 63.5021 20.5647 63.5173 20.7161C63.5324 20.8676 63.603 21.0367 63.6106 21.1982C63.6182 21.3598 63.709 21.4128 63.8628 21.4128C64.6926 21.4128 65.5224 21.3976 66.3521 21.4128C66.6044 21.4128 66.6447 21.3295 66.6447 21.1023C66.6397 19.1612 66.6422 17.2176 66.6422 15.2714ZM63.26 17.0207V18.0632C63.26 18.1515 63.2852 18.2475 63.1944 18.3156C62.4958 18.8204 61.7493 19.1839 60.869 19.0729C60.5537 19.0484 60.254 18.9257 60.012 18.7219C59.77 18.5182 59.5978 18.2437 59.5197 17.937C59.4693 17.6014 59.5243 17.2585 59.677 16.9556C59.8297 16.6526 60.0726 16.4046 60.3722 16.2458C60.8742 15.9873 61.4272 15.8433 61.9914 15.8242C62.3445 15.7889 62.7001 15.7662 63.0507 15.7182C63.2323 15.693 63.2676 15.7611 63.2651 15.9252C63.2575 16.2912 63.26 16.6597 63.26 17.0207Z" fill="#EAEAEA"></path> <path d="M100.078 11.0311C100.212 11.1587 100.369 11.2591 100.542 11.3264C100.846 11.4318 101.172 11.4544 101.488 11.3919C101.803 11.3293 102.097 11.1839 102.338 10.9705L102.411 10.9023L101.947 10.3193L101.861 10.4026C101.77 10.4862 101.666 10.5536 101.553 10.602C101.433 10.6451 101.305 10.6673 101.177 10.6676C101.079 10.6693 100.98 10.6531 100.887 10.6196C100.802 10.5828 100.724 10.5306 100.658 10.4657C100.597 10.403 100.548 10.3294 100.514 10.2486C100.478 10.1526 100.461 10.0506 100.464 9.9482C100.464 9.84929 100.481 9.75115 100.514 9.65792C100.546 9.574 100.595 9.49755 100.658 9.43326C100.72 9.36704 100.794 9.31384 100.877 9.27676C100.977 9.24382 101.082 9.22679 101.187 9.22628C101.307 9.2236 101.426 9.24417 101.538 9.28686C101.64 9.31736 101.734 9.36994 101.813 9.44084L101.901 9.52161L102.365 8.91833L102.29 8.8527C102.148 8.7273 101.983 8.62969 101.805 8.56494C101.614 8.49733 101.413 8.46318 101.21 8.46398C100.991 8.46149 100.773 8.50179 100.57 8.58261C100.389 8.65172 100.224 8.75645 100.085 8.89056C99.9486 9.02329 99.8428 9.18442 99.7751 9.36259C99.7016 9.5437 99.6648 9.73759 99.6667 9.93305C99.6639 10.1374 99.6998 10.3404 99.7726 10.5313C99.8373 10.7194 99.9413 10.8915 100.078 11.0361V11.0311Z" fill="#EAEAEA"></path> <path d="M102.534 12.5756C102.462 12.4029 102.356 12.2466 102.222 12.1162C102.088 11.9841 101.929 11.8802 101.755 11.8108C101.563 11.7374 101.358 11.7006 101.152 11.7022C100.947 11.7 100.744 11.7395 100.554 11.8184C100.383 11.8877 100.225 11.9888 100.09 12.1162C99.9558 12.2472 99.8509 12.4056 99.7827 12.5807C99.6382 12.949 99.6382 13.3583 99.7827 13.7266C99.8509 13.9017 99.9558 14.0601 100.09 14.1911C100.226 14.3235 100.386 14.4282 100.562 14.499C100.753 14.5726 100.955 14.6095 101.16 14.6076C101.367 14.6121 101.574 14.5725 101.765 14.4915C101.94 14.4188 102.098 14.312 102.23 14.1771C102.363 14.0423 102.467 13.8822 102.537 13.7064C102.609 13.5267 102.645 13.3346 102.643 13.141C102.642 12.9458 102.606 12.7523 102.534 12.5706V12.5756ZM101.137 13.8831C101.038 13.8828 100.94 13.8657 100.847 13.8327C100.766 13.7934 100.693 13.7404 100.63 13.6762C100.571 13.6123 100.525 13.5366 100.496 13.454C100.464 13.3589 100.448 13.2591 100.449 13.1587C100.448 13.0599 100.464 12.9617 100.496 12.8684C100.524 12.7834 100.571 12.7058 100.633 12.6412C100.691 12.5753 100.762 12.522 100.842 12.4847C100.936 12.4476 101.036 12.4288 101.137 12.4292C101.238 12.4264 101.338 12.4445 101.432 12.4822C101.514 12.5164 101.587 12.5681 101.647 12.6337C101.706 12.6979 101.751 12.7746 101.778 12.8583C101.842 13.0474 101.842 13.2523 101.778 13.4414C101.747 13.524 101.703 13.6008 101.647 13.6686C101.585 13.7343 101.51 13.7866 101.427 13.8226C101.337 13.8626 101.239 13.8833 101.14 13.8831H101.137Z" fill="#EAEAEA"></path> <path d="M102.03 16.5515C102.116 16.4121 102.167 16.2543 102.18 16.0911C102.194 15.9279 102.168 15.7639 102.106 15.6125C102.048 15.4852 101.962 15.3729 101.853 15.2844C101.749 15.1953 101.628 15.1276 101.498 15.085C101.354 15.0372 101.203 15.0141 101.051 15.0168H99.7651V17.8439H100.567V17.0715H100.92L101.397 17.8439H102.373L101.695 16.8342C101.824 16.7625 101.935 16.6624 102.02 16.5414L102.03 16.5515ZM100.582 15.7614H101.044C101.134 15.7563 101.223 15.7831 101.296 15.8372C101.325 15.8629 101.347 15.8948 101.362 15.9306C101.376 15.9666 101.382 16.0054 101.379 16.0442C101.382 16.0839 101.375 16.1237 101.359 16.1603C101.344 16.197 101.32 16.2292 101.289 16.2537C101.216 16.3073 101.127 16.3341 101.036 16.3294H100.595L100.582 15.7614Z" fill="#EAEAEA"></path> <path d="M101.876 18.6305C101.769 18.5403 101.646 18.4709 101.513 18.426C101.364 18.3723 101.207 18.3458 101.049 18.3478H99.7881V21.1698H100.59V20.458H101.009C101.166 20.4609 101.323 20.437 101.473 20.3873C101.613 20.3469 101.742 20.2763 101.851 20.1803C101.959 20.0887 102.045 19.974 102.103 19.8446C102.219 19.5616 102.219 19.2442 102.103 18.9611C102.051 18.8368 101.973 18.7244 101.876 18.6305ZM100.583 19.0848H101.024C101.125 19.0768 101.225 19.1075 101.304 19.1706C101.333 19.2008 101.356 19.2369 101.369 19.2767C101.384 19.3153 101.39 19.3566 101.387 19.3978C101.389 19.4417 101.382 19.4855 101.367 19.5266C101.349 19.5668 101.324 19.6029 101.291 19.6326C101.208 19.697 101.104 19.7284 100.999 19.7209H100.583V19.0848Z" fill="#EAEAEA"></path> <path d="M55.5246 9.17032C55.5246 8.72354 55.5246 8.70587 55.0983 8.64024C54.2428 8.45581 53.3519 8.5296 52.5384 8.85227C51.8751 9.14763 51.3074 9.6223 50.899 10.2229C50.841 9.82409 50.7754 9.49342 50.7451 9.1577C50.73 8.96839 50.6594 8.93557 50.4929 8.9381C49.5295 8.9381 48.5685 8.9381 47.6051 8.9381C47.4285 8.9381 47.373 8.98353 47.373 9.16527V21.1274C47.373 21.3142 47.4311 21.3571 47.6076 21.3546C48.5963 21.3546 49.5875 21.3394 50.5761 21.3546C50.8511 21.3546 50.904 21.2814 50.9015 21.0214C50.9015 18.3483 50.9015 15.6752 50.9015 13.002C50.8914 12.9395 50.8965 12.8754 50.9166 12.8153C50.9355 12.7548 50.9694 12.7001 51.015 12.6562C51.5178 12.1866 52.134 11.856 52.8032 11.697C53.6352 11.5489 54.4901 11.5929 55.3026 11.8258C55.5019 11.8763 55.5296 11.8258 55.5296 11.6491C55.5195 10.8161 55.5246 9.99573 55.5246 9.17032Z" fill="#EAEAEA"></path> <path d="M90.1331 8.55177C88.6087 8.54947 87.1307 9.07634 85.951 10.0426C84.7713 11.0088 83.9629 12.3546 83.6636 13.8505C83.3643 15.3465 83.5927 16.9 84.3098 18.2463C85.0268 19.5927 86.1882 20.6484 87.596 21.2337C89.0038 21.819 90.5708 21.8975 92.0299 21.4559C93.4891 21.0144 94.7501 20.08 95.5979 18.8121C96.4458 17.5443 96.8281 16.0213 96.6797 14.5029C96.5313 12.9845 95.8613 11.5647 94.7839 10.4853C93.5505 9.25001 91.878 8.55467 90.1331 8.55177ZM90.1331 18.6839C89.3163 18.6844 88.5245 18.4014 87.8927 17.8832C87.2609 17.365 86.8282 16.6436 86.6682 15.8419C86.5083 15.0402 86.631 14.2078 87.0155 13.4865C87.4001 12.7652 88.0226 12.1997 88.777 11.8862C89.5314 11.5728 90.3711 11.5308 91.153 11.7674C91.9349 12.0041 92.6106 12.5048 93.065 13.1841C93.5194 13.8635 93.7245 14.6795 93.6451 15.4931C93.5658 16.3068 93.2071 17.0678 92.63 17.6464C92.3023 17.975 91.9131 18.2358 91.4847 18.4138C91.0563 18.5918 90.597 18.6836 90.1331 18.6839Z" fill="#EAEAEA"></path> <path d="M16.588 15.2231C15.902 14.6804 15.1151 14.3624 14.1567 14.0393L14.0028 13.9888C13.4659 13.8292 12.9483 13.6108 12.4593 13.3375C12.2653 13.2311 12.1073 13.0695 12.0053 12.8731C11.9015 12.6781 11.8568 12.457 11.8766 12.237C11.9094 11.7725 12.3584 11.3586 13.1831 11.3586C13.8717 11.3586 14.6686 11.7902 15.3143 12.4263L17.1908 10.6013C16.8106 10.046 16.2937 9.59826 15.6901 9.30136C14.8885 8.90813 14.0077 8.70351 13.115 8.70312C12.8096 8.70395 12.5046 8.72503 12.202 8.76623C11.2874 8.86192 10.4271 9.2465 9.74545 9.86425C8.8501 10.7023 8.49952 11.7801 8.66598 13.1608C8.70678 13.5434 8.82593 13.9134 9.016 14.2478C9.20607 14.5823 9.46297 14.8739 9.77067 15.1045C10.5108 15.6204 11.32 16.0291 12.1743 16.3186L12.4719 16.4322C13.0014 16.6165 13.5123 16.8506 13.9978 17.1314C14.1622 17.2278 14.298 17.3663 14.3912 17.5327C14.4848 17.6993 14.5343 17.8869 14.535 18.078C14.535 18.168 14.5249 18.2578 14.5047 18.3455C14.3937 18.7595 13.9297 19.1987 13.1856 19.1987C11.5488 19.1987 10.3911 17.5933 10.3911 17.5933L8.75173 19.3956L8.53735 19.6253C9.23187 20.514 10.1843 21.1656 11.2638 21.4907C11.9222 21.7037 12.6097 21.8127 13.3017 21.8138C13.8221 21.8124 14.3407 21.7523 14.8477 21.6346C15.7317 21.4669 16.5297 20.9966 17.105 20.3043C17.7204 19.5319 17.955 18.6055 17.8263 17.4419C17.7849 17.0063 17.6534 16.5842 17.4402 16.2022C17.2271 15.8202 16.9368 15.4868 16.588 15.2231Z" fill="#EAEAEA"></path> <path d="M42.2128 9.17251C42.1642 9.22086 42.1187 9.2723 42.0766 9.32649C41.9228 9.50065 41.7689 9.67987 41.7059 9.76065C41.6126 9.76065 41.5016 9.69754 41.2973 9.55619L41.2065 9.49813C39.9286 8.67771 38.3886 8.36946 36.8937 8.63486C36.1366 8.73121 35.4079 8.98432 34.7539 9.37805C34.1 9.77179 33.5351 10.2975 33.0954 10.9218C31.4762 13.1935 31.8343 16.6567 34.2808 18.4287C34.4346 18.5423 34.4472 18.6054 34.3262 18.7619C33.8217 19.4182 33.3173 20.1527 32.8129 20.809V23.5856H37.04C38.412 23.6159 39.7487 23.8078 40.3061 24.8099H43.5496C43.5496 24.8099 43.4991 23.0657 41.658 21.8313C40.8509 21.2735 39.6151 20.7964 37.7537 20.7964H35.9252C36.0866 20.5743 36.2329 20.385 36.2732 20.332C36.4271 20.1199 36.5582 19.9811 36.7625 19.6959C36.7966 19.6323 36.8507 19.5817 36.9164 19.552C36.9819 19.5219 37.0553 19.514 37.1257 19.5293C37.8832 19.6379 38.6548 19.595 39.3956 19.4031C41.2368 18.9411 42.6088 17.8885 43.3226 16.0913C43.5939 15.4325 43.7286 14.7255 43.7187 14.013C43.7087 13.3005 43.5542 12.5975 43.2646 11.9466C43.1889 11.7699 43.1939 11.6942 43.2974 11.674H45.474V8.92261H42.4474L42.2128 9.17251ZM37.8899 16.6315C36.3766 16.6037 35.2921 15.5032 35.3199 14.0341C35.3162 13.6958 35.3812 13.3603 35.511 13.0479C35.6408 12.7355 35.8325 12.4527 36.0747 12.2167C36.3169 11.9807 36.6045 11.7963 36.92 11.6749C37.2354 11.5534 37.5723 11.4972 37.9101 11.5099C38.2512 11.5004 38.5905 11.5623 38.9063 11.6917C39.2227 11.8218 39.5093 12.0151 39.7487 12.2596C39.9887 12.5069 40.1751 12.8011 40.2961 13.1238C40.4172 13.4466 40.4704 13.7908 40.4524 14.1351C40.4549 14.4704 40.3898 14.8028 40.2609 15.1124C40.132 15.4219 39.942 15.7022 39.7022 15.9365C39.4625 16.1708 39.1779 16.3542 38.8657 16.4758C38.5534 16.5974 38.2198 16.6547 37.8849 16.6441L37.8899 16.6315Z" fill="#EAEAEA"></path> <path d="M78.423 9.84404C77.1242 8.82174 75.2855 8.51884 73.7899 8.76116C72.7048 8.90099 71.6874 9.36653 70.8718 10.0965C69.7979 11.0234 69.0631 12.2819 68.7835 13.6732C68.6932 14.0541 68.6417 14.4431 68.6296 14.8344C68.6301 14.8866 68.6224 14.9385 68.6069 14.9883V15.4932C68.6347 15.6106 68.6474 15.731 68.6448 15.8516C68.6448 15.9122 68.6448 15.9753 68.6448 16.0359C68.7673 17.2548 69.218 18.4177 69.9487 19.4006C70.7574 20.503 71.9356 21.2772 73.2678 21.5815C73.5091 21.6423 73.7558 21.6795 74.0043 21.6926C74.0536 21.6872 74.1034 21.6924 74.1506 21.7077H74.7206C74.8442 21.6875 74.9728 21.6774 75.0888 21.6673C75.2048 21.6572 75.2881 21.6522 75.3839 21.6371C75.7684 21.5822 76.1451 21.4822 76.5062 21.3392L78.4382 19.547V21.3619H81.6791V5.08594H78.4382L78.423 9.84404ZM77.8581 17.197C77.4394 17.8161 76.7978 18.2493 76.0674 18.4061C75.783 18.4734 75.492 18.5081 75.1998 18.5096C74.7267 18.5094 74.2587 18.4115 73.8252 18.2218C73.4651 18.0733 73.1403 17.8505 72.8718 17.5681C72.6026 17.2866 72.3962 16.951 72.2665 16.5836C71.91 15.6757 71.9245 14.6639 72.3069 13.7666C72.486 13.3194 72.7754 12.9249 73.1481 12.6199C73.5208 12.3149 73.9646 12.1093 74.4381 12.0224C75.1852 11.8488 75.9687 11.926 76.6677 12.242C77.0271 12.4022 77.3497 12.6349 77.6152 12.9254C77.8808 13.2159 78.0837 13.5582 78.2112 13.9307C78.3636 14.3625 78.437 14.8182 78.4281 15.2761C78.4332 15.9589 78.2347 16.6277 77.8581 17.197Z" fill="#EAEAEA"></path> <path d="M29.9022 15.2714V13.5853C29.9022 11.9244 29.2868 8.75902 24.6057 8.75902C23.5025 8.75486 22.3997 8.8071 21.3018 8.91552C21.2059 8.91552 21.1479 9.01901 21.1328 9.20075C21.1176 9.38249 20.9789 11.7603 20.9789 11.7603C20.9789 11.7603 20.9184 12.0354 21.1429 11.9799C22.1602 11.6997 23.2101 11.5555 24.2653 11.5508C26.1165 11.5508 26.4872 12.5428 26.4872 13.4843C26.4498 13.5155 26.4022 13.5317 26.3536 13.5297C25.681 13.5752 25 13.6265 24.3107 13.6837C23.3076 13.7551 22.3299 14.0317 21.4379 14.4965C19.791 15.385 19.1857 16.8995 19.4682 18.5352C19.8339 20.6555 21.8364 22.0312 24.1871 21.7106C25.0789 21.6101 25.92 21.2434 26.6007 20.658C26.6966 20.5722 26.7546 20.5647 26.7722 20.7161C26.7899 20.8676 26.8555 21.0367 26.8656 21.1982C26.8757 21.3598 26.9639 21.4128 27.1178 21.4128C27.9476 21.4128 28.7799 21.3976 29.6071 21.4128C29.8593 21.4128 29.9022 21.3295 29.9022 21.1023C29.8997 19.1612 29.9022 17.2176 29.9022 15.2714ZM26.5226 17.0207V18.0632C26.5226 18.1515 26.5478 18.2474 26.457 18.3156C25.7584 18.8204 25.0118 19.1839 24.1316 19.0729C23.8158 19.0489 23.5156 18.9264 23.273 18.7226C23.0305 18.5188 22.858 18.2441 22.7797 17.937C22.7297 17.6015 22.7848 17.2587 22.9375 16.9558C23.0901 16.6529 23.3328 16.4049 23.6322 16.2458C24.1351 15.9873 24.6889 15.8433 25.2539 15.8242C25.6045 15.7889 25.9601 15.7662 26.3107 15.7182C26.4923 15.693 26.5301 15.7611 26.5251 15.9252C26.515 16.2912 26.5226 16.6597 26.5226 17.0207Z" fill="#EAEAEA"></path> <path d="M66.6422 15.2714V13.5853C66.6422 11.9244 66.0243 8.75903 61.3457 8.75903C60.2433 8.75479 59.1414 8.80702 58.0443 8.91553C57.9459 8.91553 57.8879 9.01902 57.8728 9.20076C57.8576 9.3825 57.7164 11.7603 57.7164 11.7603C57.7164 11.7603 57.6559 12.0354 57.8803 11.9799C58.8977 11.6997 59.9476 11.5555 61.0027 11.5508C62.854 11.5508 63.2272 12.5428 63.2272 13.4843C63.1889 13.5157 63.1405 13.5318 63.091 13.5297C62.4101 13.5752 61.7299 13.6265 61.0506 13.6837C60.0502 13.7561 59.0751 14.0327 58.1855 14.4965C56.5386 15.385 55.9333 16.8995 56.2157 18.5352C56.5789 20.6555 58.5815 22.0312 60.9346 21.7106C61.8257 21.6101 62.6659 21.2433 63.3458 20.6581C63.4416 20.5722 63.5021 20.5647 63.5173 20.7161C63.5324 20.8676 63.603 21.0367 63.6106 21.1982C63.6182 21.3598 63.709 21.4128 63.8628 21.4128C64.6926 21.4128 65.5224 21.3976 66.3521 21.4128C66.6044 21.4128 66.6447 21.3295 66.6447 21.1023C66.6397 19.1612 66.6422 17.2176 66.6422 15.2714ZM63.26 17.0207V18.0632C63.26 18.1515 63.2852 18.2475 63.1944 18.3156C62.4958 18.8204 61.7493 19.1839 60.869 19.0729C60.5537 19.0484 60.254 18.9257 60.012 18.7219C59.77 18.5182 59.5978 18.2437 59.5197 17.937C59.4693 17.6014 59.5243 17.2585 59.677 16.9556C59.8297 16.6526 60.0726 16.4046 60.3722 16.2458C60.8742 15.9873 61.4272 15.8433 61.9914 15.8242C62.3445 15.7889 62.7001 15.7662 63.0507 15.7182C63.2323 15.693 63.2676 15.7611 63.2651 15.9252C63.2575 16.2912 63.26 16.6597 63.26 17.0207Z" fill="#EAEAEA"></path> <path d="M100.078 11.0311C100.212 11.1587 100.369 11.2591 100.542 11.3264C100.846 11.4318 101.172 11.4544 101.488 11.3919C101.803 11.3293 102.097 11.1839 102.338 10.9705L102.411 10.9023L101.947 10.3193L101.861 10.4026C101.77 10.4862 101.666 10.5536 101.553 10.602C101.433 10.6451 101.305 10.6673 101.177 10.6676C101.079 10.6693 100.98 10.6531 100.887 10.6196C100.802 10.5828 100.724 10.5306 100.658 10.4657C100.597 10.403 100.548 10.3294 100.514 10.2486C100.478 10.1526 100.461 10.0506 100.464 9.9482C100.464 9.84929 100.481 9.75115 100.514 9.65792C100.546 9.574 100.595 9.49755 100.658 9.43326C100.72 9.36704 100.794 9.31384 100.877 9.27676C100.977 9.24382 101.082 9.22679 101.187 9.22628C101.307 9.2236 101.426 9.24417 101.538 9.28686C101.64 9.31736 101.734 9.36994 101.813 9.44084L101.901 9.52161L102.365 8.91833L102.29 8.8527C102.148 8.7273 101.983 8.62969 101.805 8.56494C101.614 8.49733 101.413 8.46318 101.21 8.46398C100.991 8.46149 100.773 8.50179 100.57 8.58261C100.389 8.65172 100.224 8.75645 100.085 8.89056C99.9486 9.02329 99.8428 9.18442 99.7751 9.36259C99.7016 9.5437 99.6648 9.73759 99.6667 9.93305C99.6639 10.1374 99.6998 10.3404 99.7726 10.5313C99.8373 10.7194 99.9413 10.8915 100.078 11.0361V11.0311Z" fill="#EAEAEA"></path> <path d="M102.534 12.5756C102.462 12.4029 102.356 12.2466 102.222 12.1162C102.088 11.9841 101.929 11.8802 101.755 11.8108C101.563 11.7374 101.358 11.7006 101.152 11.7022C100.947 11.7 100.744 11.7395 100.554 11.8184C100.383 11.8877 100.225 11.9888 100.09 12.1162C99.9558 12.2472 99.8509 12.4056 99.7827 12.5807C99.6382 12.949 99.6382 13.3583 99.7827 13.7266C99.8509 13.9017 99.9558 14.0601 100.09 14.1911C100.226 14.3235 100.386 14.4282 100.562 14.499C100.753 14.5726 100.955 14.6095 101.16 14.6076C101.367 14.6121 101.574 14.5725 101.765 14.4915C101.94 14.4188 102.098 14.312 102.23 14.1771C102.363 14.0423 102.467 13.8822 102.537 13.7064C102.609 13.5267 102.645 13.3346 102.643 13.141C102.642 12.9458 102.606 12.7523 102.534 12.5706V12.5756ZM101.137 13.8831C101.038 13.8828 100.94 13.8657 100.847 13.8327C100.766 13.7934 100.693 13.7404 100.63 13.6762C100.571 13.6123 100.525 13.5366 100.496 13.454C100.464 13.3589 100.448 13.2591 100.449 13.1587C100.448 13.0599 100.464 12.9617 100.496 12.8684C100.524 12.7834 100.571 12.7058 100.633 12.6412C100.691 12.5753 100.762 12.522 100.842 12.4847C100.936 12.4476 101.036 12.4288 101.137 12.4292C101.238 12.4264 101.338 12.4445 101.432 12.4822C101.514 12.5164 101.587 12.5681 101.647 12.6337C101.706 12.6979 101.751 12.7746 101.778 12.8583C101.842 13.0474 101.842 13.2523 101.778 13.4414C101.747 13.524 101.703 13.6008 101.647 13.6686C101.585 13.7343 101.51 13.7866 101.427 13.8226C101.337 13.8626 101.239 13.8833 101.14 13.8831H101.137Z" fill="#EAEAEA"></path> <path d="M102.03 16.5515C102.116 16.4121 102.167 16.2543 102.18 16.0911C102.194 15.9279 102.168 15.7639 102.106 15.6125C102.048 15.4852 101.962 15.3729 101.853 15.2844C101.749 15.1953 101.628 15.1276 101.498 15.085C101.354 15.0372 101.203 15.0141 101.051 15.0168H99.7651V17.8439H100.567V17.0715H100.92L101.397 17.8439H102.373L101.695 16.8342C101.824 16.7625 101.935 16.6624 102.02 16.5414L102.03 16.5515ZM100.582 15.7614H101.044C101.134 15.7563 101.223 15.7831 101.296 15.8372C101.325 15.8629 101.347 15.8948 101.362 15.9306C101.376 15.9666 101.382 16.0054 101.379 16.0442C101.382 16.0839 101.375 16.1237 101.359 16.1603C101.344 16.197 101.32 16.2292 101.289 16.2537C101.216 16.3073 101.127 16.3341 101.036 16.3294H100.595L100.582 15.7614Z" fill="#EAEAEA"></path> <path d="M101.876 18.6305C101.769 18.5403 101.646 18.4709 101.513 18.426C101.364 18.3723 101.207 18.3458 101.049 18.3478H99.7881V21.1698H100.59V20.458H101.009C101.166 20.4609 101.323 20.437 101.473 20.3873C101.613 20.3469 101.742 20.2763 101.851 20.1803C101.959 20.0887 102.045 19.974 102.103 19.8446C102.219 19.5616 102.219 19.2442 102.103 18.9611C102.051 18.8368 101.973 18.7244 101.876 18.6305ZM100.583 19.0848H101.024C101.125 19.0768 101.225 19.1075 101.304 19.1706C101.333 19.2008 101.356 19.2369 101.369 19.2767C101.384 19.3153 101.39 19.3566 101.387 19.3978C101.389 19.4417 101.382 19.4855 101.367 19.5266C101.349 19.5668 101.324 19.6029 101.291 19.6326C101.208 19.697 101.104 19.7284 100.999 19.7209H100.583V19.0848Z" fill="#EAEAEA"></path> <path d="M55.5246 9.17032C55.5246 8.72354 55.5246 8.70587 55.0983 8.64024C54.2428 8.45581 53.3519 8.5296 52.5384 8.85227C51.8751 9.14763 51.3074 9.6223 50.899 10.2229C50.841 9.82409 50.7754 9.49342 50.7451 9.1577C50.73 8.96839 50.6594 8.93557 50.4929 8.9381C49.5295 8.9381 48.5685 8.9381 47.6051 8.9381C47.4285 8.9381 47.373 8.98353 47.373 9.16527V21.1274C47.373 21.3142 47.4311 21.3571 47.6076 21.3546C48.5963 21.3546 49.5875 21.3394 50.5761 21.3546C50.8511 21.3546 50.904 21.2814 50.9015 21.0214C50.9015 18.3483 50.9015 15.6752 50.9015 13.002C50.8914 12.9395 50.8965 12.8754 50.9166 12.8153C50.9355 12.7548 50.9694 12.7001 51.015 12.6562C51.5178 12.1866 52.134 11.856 52.8032 11.697C53.6352 11.5489 54.4901 11.5929 55.3026 11.8258C55.5019 11.8763 55.5296 11.8258 55.5296 11.6491C55.5195 10.8161 55.5246 9.99573 55.5246 9.17032Z" fill="#EAEAEA"></path> <path d="M90.1331 8.55177C88.6087 8.54947 87.1307 9.07634 85.951 10.0426C84.7713 11.0088 83.9629 12.3546 83.6636 13.8505C83.3643 15.3465 83.5927 16.9 84.3098 18.2463C85.0268 19.5927 86.1882 20.6484 87.596 21.2337C89.0038 21.819 90.5708 21.8975 92.0299 21.4559C93.4891 21.0144 94.7501 20.08 95.5979 18.8121C96.4458 17.5443 96.8281 16.0213 96.6797 14.5029C96.5313 12.9845 95.8613 11.5647 94.7839 10.4853C93.5505 9.25001 91.878 8.55467 90.1331 8.55177ZM90.1331 18.6839C89.3163 18.6844 88.5245 18.4014 87.8927 17.8832C87.2609 17.365 86.8282 16.6436 86.6682 15.8419C86.5083 15.0402 86.631 14.2078 87.0155 13.4865C87.4001 12.7652 88.0226 12.1997 88.777 11.8862C89.5314 11.5728 90.3711 11.5308 91.153 11.7674C91.9349 12.0041 92.6106 12.5048 93.065 13.1841C93.5194 13.8635 93.7245 14.6795 93.6451 15.4931C93.5658 16.3068 93.2071 17.0678 92.63 17.6464C92.3023 17.975 91.9131 18.2358 91.4847 18.4138C91.0563 18.5918 90.597 18.6836 90.1331 18.6839Z" fill="#EAEAEA"></path> <path d="M16.588 15.2231C15.902 14.6804 15.1151 14.3624 14.1567 14.0393L14.0028 13.9888C13.4659 13.8292 12.9483 13.6108 12.4593 13.3375C12.2653 13.2311 12.1073 13.0695 12.0053 12.8731C11.9015 12.6781 11.8568 12.457 11.8766 12.237C11.9094 11.7725 12.3584 11.3586 13.1831 11.3586C13.8717 11.3586 14.6686 11.7902 15.3143 12.4263L17.1908 10.6013C16.8106 10.046 16.2937 9.59826 15.6901 9.30136C14.8885 8.90813 14.0077 8.70351 13.115 8.70312C12.8096 8.70395 12.5046 8.72503 12.202 8.76623C11.2874 8.86192 10.4271 9.2465 9.74545 9.86425C8.8501 10.7023 8.49952 11.7801 8.66598 13.1608C8.70678 13.5434 8.82593 13.9134 9.016 14.2478C9.20607 14.5823 9.46297 14.8739 9.77067 15.1045C10.5108 15.6204 11.32 16.0291 12.1743 16.3186L12.4719 16.4322C13.0014 16.6165 13.5123 16.8506 13.9978 17.1314C14.1622 17.2278 14.298 17.3663 14.3912 17.5327C14.4848 17.6993 14.5343 17.8869 14.535 18.078C14.535 18.168 14.5249 18.2578 14.5047 18.3455C14.3937 18.7595 13.9297 19.1987 13.1856 19.1987C11.5488 19.1987 10.3911 17.5933 10.3911 17.5933L8.75173 19.3956L8.53735 19.6253C9.23187 20.514 10.1843 21.1656 11.2638 21.4907C11.9222 21.7037 12.6097 21.8127 13.3017 21.8138C13.8221 21.8124 14.3407 21.7523 14.8477 21.6346C15.7317 21.4669 16.5297 20.9966 17.105 20.3043C17.7204 19.5319 17.955 18.6055 17.8263 17.4419C17.7849 17.0063 17.6534 16.5842 17.4402 16.2022C17.2271 15.8202 16.9368 15.4868 16.588 15.2231Z" fill="#EAEAEA"></path> <path d="M42.2128 9.17251C42.1642 9.22086 42.1187 9.2723 42.0766 9.32649C41.9228 9.50065 41.7689 9.67987 41.7059 9.76065C41.6126 9.76065 41.5016 9.69754 41.2973 9.55619L41.2065 9.49813C39.9286 8.67771 38.3886 8.36946 36.8937 8.63486C36.1366 8.73121 35.4079 8.98432 34.7539 9.37805C34.1 9.77179 33.5351 10.2975 33.0954 10.9218C31.4762 13.1935 31.8343 16.6567 34.2808 18.4287C34.4346 18.5423 34.4472 18.6054 34.3262 18.7619C33.8217 19.4182 33.3173 20.1527 32.8129 20.809V23.5856H37.04C38.412 23.6159 39.7487 23.8078 40.3061 24.8099H43.5496C43.5496 24.8099 43.4991 23.0657 41.658 21.8313C40.8509 21.2735 39.6151 20.7964 37.7537 20.7964H35.9252C36.0866 20.5743 36.2329 20.385 36.2732 20.332C36.4271 20.1199 36.5582 19.9811 36.7625 19.6959C36.7966 19.6323 36.8507 19.5817 36.9164 19.552C36.9819 19.5219 37.0553 19.514 37.1257 19.5293C37.8832 19.6379 38.6548 19.595 39.3956 19.4031C41.2368 18.9411 42.6088 17.8885 43.3226 16.0913C43.5939 15.4325 43.7286 14.7255 43.7187 14.013C43.7087 13.3005 43.5542 12.5975 43.2646 11.9466C43.1889 11.7699 43.1939 11.6942 43.2974 11.674H45.474V8.92261H42.4474L42.2128 9.17251ZM37.8899 16.6315C36.3766 16.6037 35.2921 15.5032 35.3199 14.0341C35.3162 13.6958 35.3812 13.3603 35.511 13.0479C35.6408 12.7355 35.8325 12.4527 36.0747 12.2167C36.3169 11.9807 36.6045 11.7963 36.92 11.6749C37.2354 11.5534 37.5723 11.4972 37.9101 11.5099C38.2512 11.5004 38.5905 11.5623 38.9063 11.6917C39.2227 11.8218 39.5093 12.0151 39.7487 12.2596C39.9887 12.5069 40.1751 12.8011 40.2961 13.1238C40.4172 13.4466 40.4704 13.7908 40.4524 14.1351C40.4549 14.4704 40.3898 14.8028 40.2609 15.1124C40.132 15.4219 39.942 15.7022 39.7022 15.9365C39.4625 16.1708 39.1779 16.3542 38.8657 16.4758C38.5534 16.5974 38.2198 16.6547 37.8849 16.6441L37.8899 16.6315Z" fill="#EAEAEA"></path> <path d="M78.423 9.84404C77.1242 8.82174 75.2855 8.51884 73.7899 8.76116C72.7048 8.90099 71.6874 9.36653 70.8718 10.0965C69.7979 11.0234 69.0631 12.2819 68.7835 13.6732C68.6932 14.0541 68.6417 14.4431 68.6296 14.8344C68.6301 14.8866 68.6224 14.9385 68.6069 14.9883V15.4932C68.6347 15.6106 68.6474 15.731 68.6448 15.8516C68.6448 15.9122 68.6448 15.9753 68.6448 16.0359C68.7673 17.2548 69.218 18.4177 69.9487 19.4006C70.7574 20.503 71.9356 21.2772 73.2678 21.5815C73.5091 21.6423 73.7558 21.6795 74.0043 21.6926C74.0536 21.6872 74.1034 21.6924 74.1506 21.7077H74.7206C74.8442 21.6875 74.9728 21.6774 75.0888 21.6673C75.2048 21.6572 75.2881 21.6522 75.3839 21.6371C75.7684 21.5822 76.1451 21.4822 76.5062 21.3392L78.4382 19.547V21.3619H81.6791V5.08594H78.4382L78.423 9.84404ZM77.8581 17.197C77.4394 17.8161 76.7978 18.2493 76.0674 18.4061C75.783 18.4734 75.492 18.5081 75.1998 18.5096C74.7267 18.5094 74.2587 18.4115 73.8252 18.2218C73.4651 18.0733 73.1403 17.8505 72.8718 17.5681C72.6026 17.2866 72.3962 16.951 72.2665 16.5836C71.91 15.6757 71.9245 14.6639 72.3069 13.7666C72.486 13.3194 72.7754 12.9249 73.1481 12.6199C73.5208 12.3149 73.9646 12.1093 74.4381 12.0224C75.1852 11.8488 75.9687 11.926 76.6677 12.242C77.0271 12.4022 77.3497 12.6349 77.6152 12.9254C77.8808 13.2159 78.0837 13.5582 78.2112 13.9307C78.3636 14.3625 78.437 14.8182 78.4281 15.2761C78.4332 15.9589 78.2347 16.6277 77.8581 17.197Z" fill="#EAEAEA"></path> <path d="M110 30H0V0H110V30ZM2.72137 27.2789H107.279V2.7236H2.72137V27.2789Z" fill="#EAEAEA"></path> <path d="M29.9022 15.2714V13.5853C29.9022 11.9244 29.2868 8.75902 24.6057 8.75902C23.5025 8.75486 22.3997 8.8071 21.3018 8.91552C21.2059 8.91552 21.1479 9.01901 21.1328 9.20075C21.1176 9.38249 20.9789 11.7603 20.9789 11.7603C20.9789 11.7603 20.9184 12.0354 21.1429 11.9799C22.1602 11.6997 23.2101 11.5555 24.2653 11.5508C26.1165 11.5508 26.4872 12.5428 26.4872 13.4843C26.4498 13.5155 26.4022 13.5317 26.3536 13.5297C25.681 13.5752 25 13.6265 24.3107 13.6837C23.3076 13.7551 22.3299 14.0317 21.4379 14.4965C19.791 15.385 19.1857 16.8995 19.4682 18.5352C19.8339 20.6555 21.8364 22.0312 24.1871 21.7106C25.0789 21.6101 25.92 21.2434 26.6007 20.658C26.6966 20.5722 26.7546 20.5647 26.7722 20.7161C26.7899 20.8676 26.8555 21.0367 26.8656 21.1982C26.8757 21.3598 26.9639 21.4128 27.1178 21.4128C27.9476 21.4128 28.7799 21.3976 29.6071 21.4128C29.8593 21.4128 29.9022 21.3295 29.9022 21.1023C29.8997 19.1612 29.9022 17.2176 29.9022 15.2714ZM26.5226 17.0207V18.0632C26.5226 18.1515 26.5478 18.2474 26.457 18.3156C25.7584 18.8204 25.0118 19.1839 24.1316 19.0729C23.8158 19.0489 23.5156 18.9264 23.273 18.7226C23.0305 18.5188 22.858 18.2441 22.7797 17.937C22.7297 17.6015 22.7848 17.2587 22.9375 16.9558C23.0901 16.6529 23.3328 16.4049 23.6322 16.2458C24.1351 15.9873 24.6889 15.8433 25.2539 15.8242C25.6045 15.7889 25.9601 15.7662 26.3107 15.7182C26.4923 15.693 26.5301 15.7611 26.5251 15.9252C26.515 16.2912 26.5226 16.6597 26.5226 17.0207Z" fill="#EAEAEA"></path> <path d="M66.6422 15.2714V13.5853C66.6422 11.9244 66.0243 8.75903 61.3457 8.75903C60.2433 8.75479 59.1414 8.80702 58.0443 8.91553C57.9459 8.91553 57.8879 9.01902 57.8728 9.20076C57.8576 9.3825 57.7164 11.7603 57.7164 11.7603C57.7164 11.7603 57.6559 12.0354 57.8803 11.9799C58.8977 11.6997 59.9476 11.5555 61.0027 11.5508C62.854 11.5508 63.2272 12.5428 63.2272 13.4843C63.1889 13.5157 63.1405 13.5318 63.091 13.5297C62.4101 13.5752 61.7299 13.6265 61.0506 13.6837C60.0502 13.7561 59.0751 14.0327 58.1855 14.4965C56.5386 15.385 55.9333 16.8995 56.2157 18.5352C56.5789 20.6555 58.5815 22.0312 60.9346 21.7106C61.8257 21.6101 62.6659 21.2433 63.3458 20.6581C63.4416 20.5722 63.5021 20.5647 63.5173 20.7161C63.5324 20.8676 63.603 21.0367 63.6106 21.1982C63.6182 21.3598 63.709 21.4128 63.8628 21.4128C64.6926 21.4128 65.5224 21.3976 66.3521 21.4128C66.6044 21.4128 66.6447 21.3295 66.6447 21.1023C66.6397 19.1612 66.6422 17.2176 66.6422 15.2714ZM63.26 17.0207V18.0632C63.26 18.1515 63.2852 18.2475 63.1944 18.3156C62.4958 18.8204 61.7493 19.1839 60.869 19.0729C60.5537 19.0484 60.254 18.9257 60.012 18.7219C59.77 18.5182 59.5978 18.2437 59.5197 17.937C59.4693 17.6014 59.5243 17.2585 59.677 16.9556C59.8297 16.6526 60.0726 16.4046 60.3722 16.2458C60.8742 15.9873 61.4272 15.8433 61.9914 15.8242C62.3445 15.7889 62.7001 15.7662 63.0507 15.7182C63.2323 15.693 63.2676 15.7611 63.2651 15.9252C63.2575 16.2912 63.26 16.6597 63.26 17.0207Z" fill="#EAEAEA"></path> <path d="M100.078 11.0311C100.212 11.1587 100.369 11.2591 100.542 11.3264C100.846 11.4318 101.172 11.4544 101.488 11.3919C101.803 11.3293 102.097 11.1839 102.338 10.9705L102.411 10.9023L101.947 10.3193L101.861 10.4026C101.77 10.4862 101.666 10.5536 101.553 10.602C101.433 10.6451 101.305 10.6673 101.177 10.6676C101.079 10.6693 100.98 10.6531 100.887 10.6196C100.802 10.5828 100.724 10.5306 100.658 10.4657C100.597 10.403 100.548 10.3294 100.514 10.2486C100.478 10.1526 100.461 10.0506 100.464 9.9482C100.464 9.84929 100.481 9.75115 100.514 9.65792C100.546 9.574 100.595 9.49755 100.658 9.43326C100.72 9.36704 100.794 9.31384 100.877 9.27676C100.977 9.24382 101.082 9.22679 101.187 9.22628C101.307 9.2236 101.426 9.24417 101.538 9.28686C101.64 9.31736 101.734 9.36994 101.813 9.44084L101.901 9.52161L102.365 8.91833L102.29 8.8527C102.148 8.7273 101.983 8.62969 101.805 8.56494C101.614 8.49733 101.413 8.46318 101.21 8.46398C100.991 8.46149 100.773 8.50179 100.57 8.58261C100.389 8.65172 100.224 8.75645 100.085 8.89056C99.9486 9.02329 99.8428 9.18442 99.7751 9.36259C99.7016 9.5437 99.6648 9.73759 99.6667 9.93305C99.6639 10.1374 99.6998 10.3404 99.7726 10.5313C99.8373 10.7194 99.9413 10.8915 100.078 11.0361V11.0311Z" fill="#EAEAEA"></path> <path d="M102.534 12.5756C102.462 12.4029 102.356 12.2466 102.222 12.1162C102.088 11.9841 101.929 11.8802 101.755 11.8108C101.563 11.7374 101.358 11.7006 101.152 11.7022C100.947 11.7 100.744 11.7395 100.554 11.8184C100.383 11.8877 100.225 11.9888 100.09 12.1162C99.9558 12.2472 99.8509 12.4056 99.7827 12.5807C99.6382 12.949 99.6382 13.3583 99.7827 13.7266C99.8509 13.9017 99.9558 14.0601 100.09 14.1911C100.226 14.3235 100.386 14.4282 100.562 14.499C100.753 14.5726 100.955 14.6095 101.16 14.6076C101.367 14.6121 101.574 14.5725 101.765 14.4915C101.94 14.4188 102.098 14.312 102.23 14.1771C102.363 14.0423 102.467 13.8822 102.537 13.7064C102.609 13.5267 102.645 13.3346 102.643 13.141C102.642 12.9458 102.606 12.7523 102.534 12.5706V12.5756ZM101.137 13.8831C101.038 13.8828 100.94 13.8657 100.847 13.8327C100.766 13.7934 100.693 13.7404 100.63 13.6762C100.571 13.6123 100.525 13.5366 100.496 13.454C100.464 13.3589 100.448 13.2591 100.449 13.1587C100.448 13.0599 100.464 12.9617 100.496 12.8684C100.524 12.7834 100.571 12.7058 100.633 12.6412C100.691 12.5753 100.762 12.522 100.842 12.4847C100.936 12.4476 101.036 12.4288 101.137 12.4292C101.238 12.4264 101.338 12.4445 101.432 12.4822C101.514 12.5164 101.587 12.5681 101.647 12.6337C101.706 12.6979 101.751 12.7746 101.778 12.8583C101.842 13.0474 101.842 13.2523 101.778 13.4414C101.747 13.524 101.703 13.6008 101.647 13.6686C101.585 13.7343 101.51 13.7866 101.427 13.8226C101.337 13.8626 101.239 13.8833 101.14 13.8831H101.137Z" fill="#EAEAEA"></path> <path d="M102.03 16.5515C102.116 16.4121 102.167 16.2543 102.18 16.0911C102.194 15.9279 102.168 15.7639 102.106 15.6125C102.048 15.4852 101.962 15.3729 101.853 15.2844C101.749 15.1953 101.628 15.1276 101.498 15.085C101.354 15.0372 101.203 15.0141 101.051 15.0168H99.7651V17.8439H100.567V17.0715H100.92L101.397 17.8439H102.373L101.695 16.8342C101.824 16.7625 101.935 16.6624 102.02 16.5414L102.03 16.5515ZM100.582 15.7614H101.044C101.134 15.7563 101.223 15.7831 101.296 15.8372C101.325 15.8629 101.347 15.8948 101.362 15.9306C101.376 15.9666 101.382 16.0054 101.379 16.0442C101.382 16.0839 101.375 16.1237 101.359 16.1603C101.344 16.197 101.32 16.2292 101.289 16.2537C101.216 16.3073 101.127 16.3341 101.036 16.3294H100.595L100.582 15.7614Z" fill="#EAEAEA"></path> <path d="M101.876 18.6305C101.769 18.5403 101.646 18.4709 101.513 18.426C101.364 18.3723 101.207 18.3458 101.049 18.3478H99.7881V21.1698H100.59V20.458H101.009C101.166 20.4609 101.323 20.437 101.473 20.3873C101.613 20.3469 101.742 20.2763 101.851 20.1803C101.959 20.0887 102.045 19.974 102.103 19.8446C102.219 19.5616 102.219 19.2442 102.103 18.9611C102.051 18.8368 101.973 18.7244 101.876 18.6305ZM100.583 19.0848H101.024C101.125 19.0768 101.225 19.1075 101.304 19.1706C101.333 19.2008 101.356 19.2369 101.369 19.2767C101.384 19.3153 101.39 19.3566 101.387 19.3978C101.389 19.4417 101.382 19.4855 101.367 19.5266C101.349 19.5668 101.324 19.6029 101.291 19.6326C101.208 19.697 101.104 19.7284 100.999 19.7209H100.583V19.0848Z" fill="#EAEAEA"></path> <path d="M55.5246 9.17032C55.5246 8.72354 55.5246 8.70587 55.0983 8.64024C54.2428 8.45581 53.3519 8.5296 52.5384 8.85227C51.8751 9.14763 51.3074 9.6223 50.899 10.2229C50.841 9.82409 50.7754 9.49342 50.7451 9.1577C50.73 8.96839 50.6594 8.93557 50.4929 8.9381C49.5295 8.9381 48.5685 8.9381 47.6051 8.9381C47.4285 8.9381 47.373 8.98353 47.373 9.16527V21.1274C47.373 21.3142 47.4311 21.3571 47.6076 21.3546C48.5963 21.3546 49.5875 21.3394 50.5761 21.3546C50.8511 21.3546 50.904 21.2814 50.9015 21.0214C50.9015 18.3483 50.9015 15.6752 50.9015 13.002C50.8914 12.9395 50.8965 12.8754 50.9166 12.8153C50.9355 12.7548 50.9694 12.7001 51.015 12.6562C51.5178 12.1866 52.134 11.856 52.8032 11.697C53.6352 11.5489 54.4901 11.5929 55.3026 11.8258C55.5019 11.8763 55.5296 11.8258 55.5296 11.6491C55.5195 10.8161 55.5246 9.99573 55.5246 9.17032Z" fill="#EAEAEA"></path> <path d="M90.1331 8.55177C88.6087 8.54947 87.1307 9.07634 85.951 10.0426C84.7713 11.0088 83.9629 12.3546 83.6636 13.8505C83.3643 15.3465 83.5927 16.9 84.3098 18.2463C85.0268 19.5927 86.1882 20.6484 87.596 21.2337C89.0038 21.819 90.5708 21.8975 92.0299 21.4559C93.4891 21.0144 94.7501 20.08 95.5979 18.8121C96.4458 17.5443 96.8281 16.0213 96.6797 14.5029C96.5313 12.9845 95.8613 11.5647 94.7839 10.4853C93.5505 9.25001 91.878 8.55467 90.1331 8.55177ZM90.1331 18.6839C89.3163 18.6844 88.5245 18.4014 87.8927 17.8832C87.2609 17.365 86.8282 16.6436 86.6682 15.8419C86.5083 15.0402 86.631 14.2078 87.0155 13.4865C87.4001 12.7652 88.0226 12.1997 88.777 11.8862C89.5314 11.5728 90.3711 11.5308 91.153 11.7674C91.9349 12.0041 92.6106 12.5048 93.065 13.1841C93.5194 13.8635 93.7245 14.6795 93.6451 15.4931C93.5658 16.3068 93.2071 17.0678 92.63 17.6464C92.3023 17.975 91.9131 18.2358 91.4847 18.4138C91.0563 18.5918 90.597 18.6836 90.1331 18.6839Z" fill="#EAEAEA"></path> <path d="M16.588 15.2231C15.902 14.6804 15.1151 14.3624 14.1567 14.0393L14.0028 13.9888C13.4659 13.8292 12.9483 13.6108 12.4593 13.3375C12.2653 13.2311 12.1073 13.0695 12.0053 12.8731C11.9015 12.6781 11.8568 12.457 11.8766 12.237C11.9094 11.7725 12.3584 11.3586 13.1831 11.3586C13.8717 11.3586 14.6686 11.7902 15.3143 12.4263L17.1908 10.6013C16.8106 10.046 16.2937 9.59826 15.6901 9.30136C14.8885 8.90813 14.0077 8.70351 13.115 8.70312C12.8096 8.70395 12.5046 8.72503 12.202 8.76623C11.2874 8.86192 10.4271 9.2465 9.74545 9.86425C8.8501 10.7023 8.49952 11.7801 8.66598 13.1608C8.70678 13.5434 8.82593 13.9134 9.016 14.2478C9.20607 14.5823 9.46297 14.8739 9.77067 15.1045C10.5108 15.6204 11.32 16.0291 12.1743 16.3186L12.4719 16.4322C13.0014 16.6165 13.5123 16.8506 13.9978 17.1314C14.1622 17.2278 14.298 17.3663 14.3912 17.5327C14.4848 17.6993 14.5343 17.8869 14.535 18.078C14.535 18.168 14.5249 18.2578 14.5047 18.3455C14.3937 18.7595 13.9297 19.1987 13.1856 19.1987C11.5488 19.1987 10.3911 17.5933 10.3911 17.5933L8.75173 19.3956L8.53735 19.6253C9.23187 20.514 10.1843 21.1656 11.2638 21.4907C11.9222 21.7037 12.6097 21.8127 13.3017 21.8138C13.8221 21.8124 14.3407 21.7523 14.8477 21.6346C15.7317 21.4669 16.5297 20.9966 17.105 20.3043C17.7204 19.5319 17.955 18.6055 17.8263 17.4419C17.7849 17.0063 17.6534 16.5842 17.4402 16.2022C17.2271 15.8202 16.9368 15.4868 16.588 15.2231Z" fill="#EAEAEA"></path> <path d="M42.2128 9.17251C42.1642 9.22086 42.1187 9.2723 42.0766 9.32649C41.9228 9.50065 41.7689 9.67987 41.7059 9.76065C41.6126 9.76065 41.5016 9.69754 41.2973 9.55619L41.2065 9.49813C39.9286 8.67771 38.3886 8.36946 36.8937 8.63486C36.1366 8.73121 35.4079 8.98432 34.7539 9.37805C34.1 9.77179 33.5351 10.2975 33.0954 10.9218C31.4762 13.1935 31.8343 16.6567 34.2808 18.4287C34.4346 18.5423 34.4472 18.6054 34.3262 18.7619C33.8217 19.4182 33.3173 20.1527 32.8129 20.809V23.5856H37.04C38.412 23.6159 39.7487 23.8078 40.3061 24.8099H43.5496C43.5496 24.8099 43.4991 23.0657 41.658 21.8313C40.8509 21.2735 39.6151 20.7964 37.7537 20.7964H35.9252C36.0866 20.5743 36.2329 20.385 36.2732 20.332C36.4271 20.1199 36.5582 19.9811 36.7625 19.6959C36.7966 19.6323 36.8507 19.5817 36.9164 19.552C36.9819 19.5219 37.0553 19.514 37.1257 19.5293C37.8832 19.6379 38.6548 19.595 39.3956 19.4031C41.2368 18.9411 42.6088 17.8885 43.3226 16.0913C43.5939 15.4325 43.7286 14.7255 43.7187 14.013C43.7087 13.3005 43.5542 12.5975 43.2646 11.9466C43.1889 11.7699 43.1939 11.6942 43.2974 11.674H45.474V8.92261H42.4474L42.2128 9.17251ZM37.8899 16.6315C36.3766 16.6037 35.2921 15.5032 35.3199 14.0341C35.3162 13.6958 35.3812 13.3603 35.511 13.0479C35.6408 12.7355 35.8325 12.4527 36.0747 12.2167C36.3169 11.9807 36.6045 11.7963 36.92 11.6749C37.2354 11.5534 37.5723 11.4972 37.9101 11.5099C38.2512 11.5004 38.5905 11.5623 38.9063 11.6917C39.2227 11.8218 39.5093 12.0151 39.7487 12.2596C39.9887 12.5069 40.1751 12.8011 40.2961 13.1238C40.4172 13.4466 40.4704 13.7908 40.4524 14.1351C40.4549 14.4704 40.3898 14.8028 40.2609 15.1124C40.132 15.4219 39.942 15.7022 39.7022 15.9365C39.4625 16.1708 39.1779 16.3542 38.8657 16.4758C38.5534 16.5974 38.2198 16.6547 37.8849 16.6441L37.8899 16.6315Z" fill="#EAEAEA"></path> <path d="M78.423 9.84404C77.1242 8.82174 75.2855 8.51884 73.7899 8.76116C72.7048 8.90099 71.6874 9.36653 70.8718 10.0965C69.7979 11.0234 69.0631 12.2819 68.7835 13.6732C68.6932 14.0541 68.6417 14.4431 68.6296 14.8344C68.6301 14.8866 68.6224 14.9385 68.6069 14.9883V15.4932C68.6347 15.6106 68.6474 15.731 68.6448 15.8516C68.6448 15.9122 68.6448 15.9753 68.6448 16.0359C68.7673 17.2548 69.218 18.4177 69.9487 19.4006C70.7574 20.503 71.9356 21.2772 73.2678 21.5815C73.5091 21.6423 73.7558 21.6795 74.0043 21.6926C74.0536 21.6872 74.1034 21.6924 74.1506 21.7077H74.7206C74.8442 21.6875 74.9728 21.6774 75.0888 21.6673C75.2048 21.6572 75.2881 21.6522 75.3839 21.6371C75.7684 21.5822 76.1451 21.4822 76.5062 21.3392L78.4382 19.547V21.3619H81.6791V5.08594H78.4382L78.423 9.84404ZM77.8581 17.197C77.4394 17.8161 76.7978 18.2493 76.0674 18.4061C75.783 18.4734 75.492 18.5081 75.1998 18.5096C74.7267 18.5094 74.2587 18.4115 73.8252 18.2218C73.4651 18.0733 73.1403 17.8505 72.8718 17.5681C72.6026 17.2866 72.3962 16.951 72.2665 16.5836C71.91 15.6757 71.9245 14.6639 72.3069 13.7666C72.486 13.3194 72.7754 12.9249 73.1481 12.6199C73.5208 12.3149 73.9646 12.1093 74.4381 12.0224C75.1852 11.8488 75.9687 11.926 76.6677 12.242C77.0271 12.4022 77.3497 12.6349 77.6152 12.9254C77.8808 13.2159 78.0837 13.5582 78.2112 13.9307C78.3636 14.3625 78.437 14.8182 78.4281 15.2761C78.4332 15.9589 78.2347 16.6277 77.8581 17.197Z" fill="#EAEAEA"></path> <path d="M110 30H0V0H110V30ZM2.72137 27.2789H107.279V2.7236H2.72137V27.2789Z" fill="#EAEAEA"></path> </svg> 